<svg width="180" height="180" viewBox="0 0 180 180" fill="none" xmlns="http://www.w3.org/2000/svg">
<path d="M180 115.706L112.5 154.066L112.5 77.3467L180 115.706Z" fill="#FFFDD0"/>
<path d="M155.089 115.706L124.955 132.831V98.5815L155.089 115.706Z" fill="black"/>
<path d="M180 64.2937L112.5 25.9342V102.653L180 64.2937Z" fill="#FFFDD0"/>
<path d="M155.089 64.2937L124.955 47.1689V81.4185L155.089 64.2937Z" fill="black"/>
<path d="M75.04 154.2C71.68 154.2 68.12 153.84 64.36 153.12C60.6 152.48 58.04 151.76 56.68 150.96C56.68 146.48 57.08 143.44 57.88 141.84C58.68 140.16 59.76 139.32 61.12 139.32C61.76 139.32 62.48 139.4 63.28 139.56C64.16 139.72 64.8 139.84 65.2 139.92C68.08 140.64 70.64 141 72.88 141C76.16 141 78.64 140.04 80.32 138.12C82.08 136.2 82.96 133.44 82.96 129.84V69H101.44V129.84C101.44 134.56 100.32 138.76 98.08 142.44C95.84 146.12 92.72 149 88.72 151.08C84.72 153.16 80.16 154.2 75.04 154.2Z" fill="#FFFDD0"/>
<path d="M76.08 60.92V98.24C68.88 104.88 58.8 108.2 45.84 108.2C32.8 108.2 22.92 104.56 16.2 97.28C9.56 90 6.24 79.24 6.24 65C6.24 56.36 7.92 48.8 11.28 42.32C14.64 35.76 19.4 30.72 25.56 27.2C31.72 23.6 38.88 21.8 47.04 21.8C53.12 21.8 58.6 22.56 63.48 24.08C68.36 25.52 72.44 27.68 75.72 30.56C75.08 33.04 73.84 35.44 72 37.76C70.24 40.08 68.76 41.24 67.56 41.24C67 41.24 66.48 41.16 66 41C65.6 40.84 65 40.52 64.2 40.04C61.48 38.28 58.72 37 55.92 36.2C53.12 35.4 50.08 35 46.8 35C39.76 35 34.4 37.56 30.72 42.68C27.04 47.8 25.2 55.24 25.2 65C25.2 85 32 95 45.6 95C51.36 95 55.44 94.12 57.84 92.36V73.64H50.52C48.04 73.64 46.28 72.72 45.24 70.88C44.2 68.96 43.68 65.64 43.68 60.92H76.08Z" fill="#FFFDD0"/>
</svg>
