<svg width="240" height="52" viewBox="0 0 240 52" fill="none" xmlns="http://www.w3.org/2000/svg">
<g clip-path="url(#clip0_9_13)">
<path d="M31.7 24.8V40.35C28.7 43.1167 24.5 44.5 19.1 44.5C13.6667 44.5 9.55 42.9833 6.75 39.95C3.98333 36.9167 2.6 32.4333 2.6 26.5C2.6 22.9 3.3 19.75 4.7 17.05C6.1 14.3167 8.08333 12.2167 10.65 10.75C13.2167 9.25 16.2 8.5 19.6 8.5C22.1333 8.5 24.4167 8.81666 26.45 9.45C28.4833 10.05 30.1833 10.95 31.55 12.15C31.2833 13.1833 30.7667 14.1833 30 15.15C29.2667 16.1167 28.65 16.6 28.15 16.6C27.9167 16.6 27.7 16.5667 27.5 16.5C27.3333 16.4333 27.0833 16.3 26.75 16.1C25.6167 15.3667 24.4667 14.8333 23.3 14.5C22.1333 14.1667 20.8667 14 19.5 14C16.5667 14 14.3333 15.0667 12.8 17.2C11.2667 19.3333 10.5 22.4333 10.5 26.5C10.5 34.8333 13.3333 39 19 39C21.4 39 23.1 38.6333 24.1 37.9V30.1H21.05C20.0167 30.1 19.2833 29.7167 18.85 28.95C18.4167 28.15 18.2 26.7667 18.2 24.8H31.7ZM42.6273 44.5C41.2273 44.5 39.744 44.35 38.1773 44.05C36.6107 43.7833 35.544 43.4833 34.9773 43.15C34.9773 41.2833 35.144 40.0167 35.4773 39.35C35.8107 38.65 36.2607 38.3 36.8273 38.3C37.094 38.3 37.394 38.3333 37.7273 38.4C38.094 38.4667 38.3607 38.5167 38.5273 38.55C39.7273 38.85 40.794 39 41.7273 39C43.094 39 44.1273 38.6 44.8273 37.8C45.5607 37 45.9273 35.85 45.9273 34.35V9H53.6273V34.35C53.6273 36.3167 53.1607 38.0667 52.2273 39.6C51.294 41.1333 49.994 42.3333 48.3273 43.2C46.6607 44.0667 44.7607 44.5 42.6273 44.5Z" fill="black"/>
<path d="M236.5 37.15C236.5 38.1833 236.533 39.4 236.6 40.8C236.667 41.7333 236.7 42.35 236.7 42.65C236.7 43.55 236.267 44 235.4 44H228.9V42.3C228.9 40.6333 228.25 38.7833 226.95 36.75L215.9 19.75V44H208.3V9H215.2C215.633 9 215.983 9.06666 216.25 9.2C216.55 9.3 216.833 9.56667 217.1 10L228.9 27.95V9H236.5V37.15Z" fill="black"/>
<path d="M131.5 37.15C131.5 38.1833 131.533 39.4 131.6 40.8C131.667 41.7333 131.7 42.35 131.7 42.65C131.7 43.55 131.267 44 130.4 44H123.9V42.3C123.9 40.6333 123.25 38.7833 121.95 36.75L110.9 19.75V44H103.3V9H110.2C110.633 9 110.983 9.06666 111.25 9.2C111.55 9.3 111.833 9.56667 112.1 10L123.9 27.95V9H131.5V37.15ZM151.61 44.5C147.51 44.5 144.293 43.8 141.96 42.4C139.626 41 138.46 39.0833 138.46 36.65C138.46 35.4833 138.943 34.5667 139.91 33.9C140.91 33.2333 142.31 32.8833 144.11 32.85C144.31 34.8167 145.06 36.3333 146.36 37.4C147.693 38.4667 149.476 39 151.71 39C155.81 39 157.86 37.4833 157.86 34.45C157.86 33.25 157.293 32.2667 156.16 31.5C155.06 30.7333 153.126 29.95 150.36 29.15C146.426 28.05 143.543 26.65 141.71 24.95C139.876 23.2167 138.96 21 138.96 18.3C138.96 15.2667 140.126 12.8833 142.46 11.15C144.826 9.38333 148.043 8.5 152.11 8.5C155.376 8.5 158.176 9.28333 160.51 10.85C162.843 12.3833 164.443 14.5333 165.31 17.3C164.743 17.8667 163.96 18.3667 162.96 18.8C161.96 19.2333 161.076 19.45 160.31 19.45C159.71 19.45 159.243 19.3333 158.91 19.1C158.576 18.8333 158.226 18.35 157.86 17.65C157.193 16.35 156.426 15.4167 155.56 14.85C154.693 14.2833 153.543 14 152.11 14C148.543 14 146.76 15.1833 146.76 17.55C146.76 18.4833 146.943 19.25 147.31 19.85C147.676 20.4167 148.31 20.95 149.21 21.45C150.11 21.9167 151.476 22.45 153.31 23.05C156.643 24.15 159.193 25.1667 160.96 26.1C162.726 27 163.96 27.9833 164.66 29.05C165.393 30.1167 165.76 31.4333 165.76 33C165.76 35.2667 165.16 37.2667 163.96 39C162.793 40.7333 161.143 42.0833 159.01 43.05C156.876 44.0167 154.41 44.5 151.61 44.5Z" fill="black"/>
<path d="M100 27L62.5 48.6506L62.5 5.34937L100 27Z" fill="black"/>
<path d="M86.1607 26.9999L69.4196 36.6654V17.3345L86.1607 26.9999Z" fill="#f3f3f3"/>
<path d="M166 27L203.5 5.34937V48.6506L166 27Z" fill="black"/>
<path d="M179.839 27.0001L196.58 17.3346V36.6655L179.839 27.0001Z" fill="#f3f3f3"/>
</g>
<defs>
<clipPath id="clip0_9_13">
<rect width="240" height="52" fill="white"/>
</clipPath>
</defs>
</svg>
