<svg width="1032" height="679" viewBox="0 0 1032 679" fill="none" xmlns="http://www.w3.org/2000/svg">
<g clip-path="url(#clip0_5_2)">
<path d="M591.954 475.892L678.646 64.7527L1028.94 166.575L882.094 559.504L725.803 564.774L591.954 475.892Z" fill="#E9CA32"/>
<path d="M737.01 525.884L844.181 153.991L988.375 196.128L866.749 521.441L737.01 525.884Z" fill="#FFDE25"/>
<path d="M815.999 193.694L777.836 182.696L706.506 430.219L678.654 415.319L688.256 381.999L654.749 365.469L633.259 440.043L727.751 499.924L815.999 193.694ZM844.626 201.943L950.273 232.388L929.534 277.794L871.285 261.008L848.85 338.86L907.099 355.646L854.75 510.745L756.378 508.174L770.553 458.986L839.242 453.004L861.56 388.979L793.095 380.763L844.626 201.943Z" fill="white"/>
</g>
<g clip-path="url(#clip1_5_2)">
<path d="M148.641 561.007L3.21704 166.792L353.968 66.562L438.774 477.374L309.263 565.017L148.641 561.007Z" fill="#E34F26"/>
<path d="M298.053 526.128L190.853 154.241L335.354 113.171L405.525 453.317L298.053 526.128Z" fill="#EF652A"/>
<path d="M322.286 216.979L312.204 166.646L90.1542 230.654L145.863 377.818L299.11 333.644L311.628 399.652L266.831 428.65L212.361 426.802L198.661 389.215L154.631 401.907L183.223 478.494L281.853 480.776L364.856 426.136L333.062 269.741L172.121 316.134L152.681 265.869L322.286 216.979Z" fill="white"/>
</g>
<g clip-path="url(#clip2_5_2)">
<path d="M384.545 494.851L354 75.7867L718.79 76.6288L686.491 494.851L537.772 543.193L384.545 494.851Z" fill="#1B73BA"/>
<path d="M537.772 502.721V115.698L687.995 116.259L661.206 462.529L537.772 502.721Z" fill="#1C88C7"/>
<path d="M650.689 165.166H419.598L425.858 215.754H535.518L427.611 267.753L433.868 316.656H592.855L587.095 384.953L533.265 396.759L484.445 382.707L480.688 343.919H435.872L441.879 424.586L538.022 454.659L630.161 421.776L641.928 264.097H544.529L650.686 214.632L650.689 165.166Z" fill="white"/>
</g>
<defs>
<clipPath id="clip0_5_2">
<rect width="364.791" height="468.977" fill="white" transform="translate(678.863 64) rotate(16.0757)"/>
</clipPath>
<clipPath id="clip1_5_2">
<rect width="364.79" height="468.98" fill="white" transform="translate(3 166.039) rotate(-16.08)"/>
</clipPath>
<clipPath id="clip2_5_2">
<rect width="364.79" height="468.98" fill="white" transform="translate(354 75)"/>
</clipPath>
</defs>
</svg>
