<svg id="visual" viewBox="0 0 300 300" width="300" height="300" xmlns="http://www.w3.org/2000/svg" xmlns:xlink="http://www.w3.org/1999/xlink" version="1.1"><g transform="translate(164.9175236402375 140.65107205582802)"><path d="M64.7 -71C83.6 -61.3 98.4 -40.6 97.8 -20.7C97.2 -0.8 81.1 18.3 69.3 41.2C57.6 64.2 50.2 90.8 35.1 96.3C20 101.8 -2.9 86.1 -27.3 76.6C-51.7 67 -77.8 63.5 -98.2 47.4C-118.5 31.3 -133.1 2.6 -125.7 -19.1C-118.2 -40.9 -88.7 -55.7 -64 -64.3C-39.4 -73 -19.7 -75.5 1.6 -77.4C22.9 -79.3 45.9 -80.6 64.7 -71" fill="#2ab8cb"></path></g></svg>