<svg width="782" height="717" viewBox="0 0 782 717" fill="none" xmlns="http://www.w3.org/2000/svg">
<g clip-path="url(#clip0_8_2)">
<rect width="782" height="717" fill="white"/>
<path fill-rule="evenodd" clip-rule="evenodd" d="M0 0H782V717H0V0Z" fill="black"/>
<path fill-rule="evenodd" clip-rule="evenodd" d="M695.474 349.755L498.757 10.5454L122.422 194.017L319.135 533.227L695.474 349.755Z" fill="black"/>
<path fill-rule="evenodd" clip-rule="evenodd" d="M427.375 277.016L436.985 293.587L506.087 259.897L579.571 386.614L597.644 377.802L524.161 251.085L593.263 217.4L583.652 200.828L427.375 277.016Z" fill="black"/>
<path fill-rule="evenodd" clip-rule="evenodd" d="M427.375 277.016L583.652 200.828L593.263 217.4L524.161 251.085L597.644 377.802L579.571 386.614L506.087 259.897L436.985 293.587L427.375 277.016Z" fill="white"/>
<path fill-rule="evenodd" clip-rule="evenodd" d="M252.626 332.559L234.552 341.367L151.458 198.079L345.599 245.971L281.158 134.851L299.228 126.039L385.15 274.2L192.141 228.261L252.626 332.559Z" fill="black"/>
<path fill-rule="evenodd" clip-rule="evenodd" d="M385.758 180.154C405.374 210.879 448.134 222.194 482.727 205.325C509.349 192.347 523.589 166.369 521.078 140.461L541.436 138.794C544.653 171.974 526.421 205.243 492.326 221.867C446.868 244.029 390.416 228.205 366.245 186.526C342.073 144.843 359.327 93.0862 404.794 70.9204C450.252 48.7582 506.7 64.5819 530.875 106.262C531.342 107.076 531.804 107.894 532.238 108.717L385.758 180.154Z" fill="white"/>
<path fill-rule="evenodd" clip-rule="evenodd" d="M502.68 101.664C480.857 79.3418 444.495 72.6277 414.331 87.3355C384.213 102.021 369.953 133.341 377.851 162.377L502.68 101.664Z" fill="black"/>
<path fill-rule="evenodd" clip-rule="evenodd" d="M354.666 402.65L252.926 375.358L258.898 357.44L360.922 385.223L392.035 291.909L411.853 297.876L380.708 389.958L484.078 417.707L478.922 435.852L374.74 407.868L343.907 501.669L323.553 495.966C323.553 495.966 354.139 402.91 354.666 402.65ZM234.552 341.367L151.458 198.079L345.599 245.971L281.158 134.851L299.228 126.039L385.15 274.2L192.141 228.261L252.626 332.559L234.552 341.367Z" fill="white"/>
<path fill-rule="evenodd" clip-rule="evenodd" d="M323.561 545.074L690.869 366.006L631.853 532.312L274.647 706.458L323.561 545.074ZM262.326 701.373L309.995 543.724L118.085 212.798L86.5265 398.23L262.326 701.373ZM604.111 563.888C598.866 563.888 594.46 567.668 594.46 572.619C594.453 573.781 594.699 574.933 595.182 576.008C595.665 577.083 596.376 578.059 597.274 578.88C598.172 579.701 599.239 580.35 600.412 580.79C601.586 581.23 602.843 581.451 604.111 581.442C605.376 581.449 606.629 581.225 607.798 580.784C608.968 580.343 610.03 579.693 610.923 578.872C611.815 578.051 612.521 577.075 612.999 576.001C613.477 574.928 613.717 573.778 613.706 572.619C613.706 567.664 609.333 563.888 604.111 563.888ZM604.111 580.151C599.628 580.151 596.204 576.915 596.204 572.619C596.204 568.419 599.628 565.183 604.111 565.183C608.533 565.183 611.965 568.419 611.965 572.619C611.965 576.915 608.533 580.151 604.111 580.151Z" fill="white"/>
<path fill-rule="evenodd" clip-rule="evenodd" d="M605.673 573.251C607.336 573.084 608.614 572.314 608.614 570.457C608.614 568.486 607.361 567.526 604.699 567.526H600.375V577.778H602.119V573.366H603.965L607.008 577.778H608.878L605.673 573.251ZM603.929 572.068H602.115V568.806H604.42C605.592 568.806 606.874 569.018 606.874 570.376C606.878 571.994 605.466 572.068 603.929 572.068Z" fill="black"/>
</g>
<defs>
<clipPath id="clip0_8_2">
<rect width="782" height="717" fill="white"/>
</clipPath>
</defs>
</svg>
